<?xml version="1.0" encoding="UTF-8"?>
<svg version="1.1" xmlns="http://www.w3.org/2000/svg" width="1024" height="1024">
<path d="M0 0 C337.92 0 675.84 0 1024 0 C1024 337.92 1024 675.84 1024 1024 C686.08 1024 348.16 1024 0 1024 C0 686.08 0 348.16 0 0 Z " fill="#FEFEFE" transform="translate(0,0)"/>
<path d="M0 0 C2.31217866 1.74390604 2.93084092 2.55395774 3.38031673 5.45285702 C3.38274663 6.43440038 3.38517653 7.41594374 3.38768005 8.42723083 C3.39758469 9.55519073 3.40748932 10.68315063 3.41769409 11.84529114 C3.41319244 13.08413559 3.4086908 14.32298004 3.40405273 15.59936523 C3.41091599 16.90391663 3.41777924 18.20846802 3.42485046 19.55255127 C3.44283549 23.13838373 3.4416001 26.72397208 3.43590808 30.30983615 C3.43281491 33.31536646 3.43891216 36.32084998 3.44494683 39.32637364 C3.45901634 46.43775539 3.4574189 53.54901719 3.44604492 60.66040039 C3.43464216 67.94982696 3.44850017 75.23888222 3.4754414 82.52825969 C3.4977841 88.8131079 3.50419215 95.09784125 3.49836498 101.38272625 C3.49502824 105.12365862 3.49718346 108.86435489 3.51461601 112.60525322 C3.63270621 140.62821649 2.22269194 165.63912771 -17.6875 187.1875 C-30.80591995 199.71546269 -47.66289687 204.75299641 -65 208 C-65.84585159 208.16995483 -66.69170319 208.33990967 -67.56318665 208.51501465 C-71.77838957 209.10984232 -75.88090032 209.15547568 -80.13208008 209.16113281 C-81.03223846 209.16609772 -81.93239685 209.17106262 -82.85983276 209.17617798 C-85.82974017 209.19074572 -88.79959401 209.19759566 -91.76953125 209.203125 C-92.79090368 209.20595238 -93.81227612 209.20877975 -94.86459923 209.21169281 C-100.27879468 209.22667036 -105.69296362 209.23590653 -111.10717773 209.24023438 C-116.65664523 209.24569048 -122.20586382 209.26966184 -127.75525379 209.29820633 C-132.05798507 209.316991 -136.36065856 209.32204684 -140.66342735 209.32357025 C-142.70642126 209.32656607 -144.74941491 209.33448841 -146.79236794 209.34775543 C-174.68059881 209.51580948 -202.80783755 204.43999458 -223.63574219 184.40527344 C-226.98570426 180.95459669 -229.58560007 177.1399653 -232 173 C-232.39574219 172.34644531 -232.79148437 171.69289063 -233.19921875 171.01953125 C-238.39526883 161.65118817 -239.28430924 151.90268563 -239.375 141.375 C-239.38885742 140.40941162 -239.40271484 139.44382324 -239.41699219 138.44897461 C-239.36220223 129.99474059 -238.00478685 121.31474646 -232.6081543 114.51171875 C-225.67134365 107.99088506 -215.71784749 106.59261547 -206.75 104.8125 C-177.39115016 98.61289839 -149.51299952 88.72532533 -125 71 C-123.94683594 70.2678125 -122.89367187 69.535625 -121.80859375 68.78125 C-109.08851778 59.90596864 -96.93840456 50.25493352 -84.9375 40.4375 C-76.77061345 33.76313701 -68.45791343 27.30148305 -60 21 C-58.94594971 20.21230225 -58.94594971 20.21230225 -57.87060547 19.40869141 C-18.66139557 -9.68957078 -18.66139557 -9.68957078 0 0 Z " fill="#000000" transform="translate(305,442)"/>
<path d="M0 0 C4.46075061 0.01705172 8.92096279 0.00695805 13.38169479 -0.0103159 C83.78834259 -0.242071 83.78834259 -0.242071 109.42333984 24.12353516 C124.49467639 39.11053151 128.56725217 57.01549644 128.68408203 77.85131836 C128.67742884 82.0319731 128.63222588 86.21120019 128.55444336 90.39111328 C127.98636963 90.37540283 127.4182959 90.35969238 126.83300781 90.34350586 C96.46083532 89.61589999 75.08100471 100.0579152 51.55444336 118.39111328 C50.45106359 119.23849306 49.34687153 120.08481601 48.24194336 120.93017578 C44.31219199 123.93948031 40.38916294 126.95721671 36.48925781 130.00512695 C31.08423975 134.22696871 25.62798349 138.37119389 20.11694336 142.45361328 C19.33512695 143.03949219 18.55331055 143.62537109 17.74780273 144.22900391 C12.21354717 148.32626296 6.51011525 151.94036065 0.55444336 155.39111328 C-0.15607178 155.81239502 -0.86658691 156.23367676 -1.59863281 156.66772461 C-26.46366209 171.35546702 -55.84925542 182.93441213 -85.07055664 175.70361328 C-93.98867972 173.29418579 -101.45648214 169.44133083 -106.44555664 161.39111328 C-109.04752476 155.26916386 -110.30567893 149.51131542 -111.10961914 142.92236328 C-111.23575592 141.89212036 -111.3618927 140.86187744 -111.49185181 139.80041504 C-112.90922102 126.93489955 -112.9000696 114.04081286 -112.83666992 101.11572266 C-112.81944551 97.57487593 -112.82982109 94.0346993 -112.84700584 90.49387455 C-112.92847898 70.67181797 -112.91475085 52.12717039 -102.67993164 34.54736328 C-101.6164222 32.68958731 -100.67443982 30.7632 -99.75805664 28.82861328 C-91.89562075 15.34127266 -72.27314972 8.04465401 -57.91487122 4.03779602 C-39.06908979 -0.89767947 -19.31673763 -0.07451343 0 0 Z " fill="#FED30A" transform="translate(178.445556640625,334.60888671875)"/>
<path d="M0 0 C7.59 0 15.18 0 23 0 C23.33 13.86 23.66 27.72 24 42 C25.98 40.35 27.96 38.7 30 37 C32.23046875 35.671875 32.23046875 35.671875 34.1875 34.75 C34.84105469 34.43546875 35.49460937 34.1209375 36.16796875 33.796875 C43.97343542 30.40174664 55.58658676 30.62157017 63.5625 33.625 C76.02785532 39.65662354 83.60609947 49.25736946 88.1171875 62.20703125 C91.32883137 76.00573124 89.67582955 90.62819564 82.3125 102.75 C76.03467172 111.44116428 67.68065252 117.9691717 57 120 C43.1774314 120.92150457 34.87471916 118.69977533 24 110 C23.67 112.97 23.34 115.94 23 119 C15.41 119 7.82 119 0 119 C0 79.73 0 40.46 0 0 Z " fill="#010101" transform="translate(581,520)"/>
<path d="M0 0 C8.58 0 17.16 0 26 0 C26 15.84 26 31.68 26 48 C41.84 48 57.68 48 74 48 C74 32.16 74 16.32 74 0 C82.58 0 91.16 0 100 0 C100 39.27 100 78.54 100 119 C91.42 119 82.84 119 74 119 C74 102.83 74 86.66 74 70 C58.16 70 42.32 70 26 70 C26 86.17 26 102.34 26 119 C17.42 119 8.84 119 0 119 C0 79.73 0 40.46 0 0 Z " fill="#030303" transform="translate(363,520)"/>
<path d="M0 0 C8.58 0 17.16 0 26 0 C26 15.51 26 31.02 26 47 C41.84 47 57.68 47 74 47 C74 31.49 74 15.98 74 0 C82.25 0 90.5 0 99 0 C99 38.61 99 77.22 99 117 C90.75 117 82.5 117 74 117 C74 101.16 74 85.32 74 69 C58.16 69 42.32 69 26 69 C26 84.84 26 100.68 26 117 C17.42 117 8.84 117 0 117 C0 78.39 0 39.78 0 0 Z " fill="#020202" transform="translate(363,368)"/>
<path d="M0 0 C8.88659231 8.06943439 14.10573162 19.22860116 15 31.0859375 C15.44654937 44.34501887 11.71014377 57.23832416 2.5390625 67.1015625 C-8.71190288 77.41288681 -20.81790472 80.08208894 -35.63671875 79.63671875 C-47.30270848 78.9715213 -57.60690885 72.76285186 -65.578125 64.40234375 C-74.50404902 52.84989185 -76.08418594 40.34554552 -75.2109375 26.2890625 C-73.6425065 15.93741789 -67.7211834 5.31711487 -59.50390625 -1.18359375 C-40.69377905 -13.71299705 -18.28284778 -14.14821083 0 0 Z " fill="#020202" transform="translate(553.2109375,407.7109375)"/>
<path d="M0 0 C1.051875 0.721875 2.10375 1.44375 3.1875 2.1875 C12.55886051 11.55886051 17.32416526 23.36034956 17.5 36.5 C17.36140538 47.76986527 14.03303916 57.15308699 7 66 C6.28263672 66.92232422 6.28263672 66.92232422 5.55078125 67.86328125 C-0.26511673 74.47025855 -10.24319537 79.92666969 -19 81 C-34.11016036 81.93763252 -45.66714902 80.4896488 -58 71 C-64.33639486 65.28862368 -68.06169557 58.9584035 -71 51 C-71.24621094 50.33355469 -71.49242187 49.66710937 -71.74609375 48.98046875 C-75.33148874 37.2352093 -72.88845902 25.01224265 -67.64453125 14.20703125 C-61.10519007 2.61854729 -51.81699538 -3.87954859 -39.22265625 -7.8828125 C-25.01423292 -11.07016813 -11.89563642 -8.30772454 0 0 Z " fill="#020202" transform="translate(842,406)"/>
<path d="M0 0 C6.83935728 0.10501892 14.93828545 2.86088029 19.97265625 7.57421875 C28.30909286 18.38971231 29.61640258 29.85816397 29.5078125 43 C29.5049826 44.29824707 29.50215271 45.59649414 29.49923706 46.93408203 C29.49165637 50.36012692 29.47205685 53.78599812 29.4498291 57.2119751 C29.42924969 60.71811576 29.42020966 64.2242849 29.41015625 67.73046875 C29.38880474 74.59122371 29.35366905 81.4518356 29.3125 88.3125 C21.3925 88.3125 13.4725 88.3125 5.3125 88.3125 C5.27511719 84.41179687 5.23773437 80.51109375 5.19921875 76.4921875 C5.15299168 72.70925324 5.10176212 68.92641746 5.05004883 65.14355469 C5.01681962 62.51698809 4.9887815 59.89035043 4.96606445 57.26367188 C4.93248272 53.48536939 4.88016247 49.70771695 4.82421875 45.9296875 C4.81782883 44.75759735 4.8114389 43.5855072 4.80485535 42.37789917 C4.70035997 36.56725456 4.49007669 32.36977738 1.3125 27.3125 C1.3125 26.6525 1.3125 25.9925 1.3125 25.3125 C-4.24698823 22.90839698 -9.73074246 22.60230536 -15.6875 23.3125 C-21.56267805 26.0898569 -24.58499344 30.25961513 -26.77099609 36.31274414 C-28.1272509 41.30402684 -28.04298962 46.35534043 -28.1015625 51.49609375 C-28.12092865 52.55159927 -28.1402948 53.6071048 -28.1602478 54.69459534 C-28.21974553 58.0463162 -28.26630965 61.39807197 -28.3125 64.75 C-28.3507072 67.03061345 -28.38976051 69.31121289 -28.4296875 71.59179688 C-28.52700566 77.16528926 -28.60681179 82.73864308 -28.6875 88.3125 C-36.2775 88.3125 -43.8675 88.3125 -51.6875 88.3125 C-51.6875 59.9325 -51.6875 31.5525 -51.6875 2.3125 C-44.0975 2.3125 -36.5075 2.3125 -28.6875 2.3125 C-28.3575 6.2725 -28.0275 10.2325 -27.6875 14.3125 C-26.57375 13.095625 -25.46 11.87875 -24.3125 10.625 C-17.22414059 3.53664059 -9.82059337 0.83225368 0 0 Z " fill="#020202" transform="translate(925.6875,396.6875)"/>
<path d="M0 0 C7.59 0 15.18 0 23 0 C23.03738281 3.70992187 23.07476562 7.41984375 23.11328125 11.2421875 C23.15957366 14.85975839 23.21077938 18.47722897 23.26245117 22.09472656 C23.29557919 24.59694251 23.32364833 27.09923101 23.34643555 29.6015625 C23.38020452 33.21125019 23.43253274 36.82028024 23.48828125 40.4296875 C23.49467117 41.53738495 23.5010611 42.6450824 23.50764465 43.78634644 C23.63243026 50.47093159 24.19140268 56.84113249 27 63 C31.5768882 66.12995183 37.6455656 65.51182094 43 65 C47.21503413 63.46726032 50.23809819 61.55101661 53 58 C55.32683268 51.7708204 55.34345677 45.75809833 55.4140625 39.16015625 C55.43342865 38.03806259 55.4527948 36.91596893 55.4727478 35.75987244 C55.53228016 32.1941577 55.57882378 28.62841022 55.625 25.0625 C55.66320399 22.63735612 55.70225712 20.21222545 55.7421875 17.78710938 C55.83954992 11.8581437 55.91932911 5.92931005 56 0 C63.59 0 71.18 0 79 0 C79 28.38 79 56.76 79 86 C71.41 86 63.82 86 56 86 C55.67 82.37 55.34 78.74 55 75 C53.2984375 76.85625 53.2984375 76.85625 51.5625 78.75 C44.94146867 85.24436812 39.3682909 87.36078545 30.0625 87.5 C21.45077516 87.38126576 14.6317108 85.66939719 8.125 79.875 C1.57022712 72.68639295 -0.13345257 63.25651935 -0.11352539 53.81103516 C-0.11344986 52.61024323 -0.11337433 51.40945129 -0.11329651 50.17227173 C-0.10813522 48.89081268 -0.10297394 47.60935364 -0.09765625 46.2890625 C-0.09578895 44.95242364 -0.09436652 43.61578408 -0.09336853 42.27914429 C-0.08956795 38.77750731 -0.07975891 35.27591244 -0.06866455 31.77429199 C-0.05839732 28.19458587 -0.05385957 24.61487288 -0.04882812 21.03515625 C-0.03813422 14.02341856 -0.02055758 7.01171564 0 0 Z " fill="#010101" transform="translate(482,553)"/>
<path d="M0 0 C23.1 0 46.2 0 70 0 C70 19.89589813 70 19.89589813 63.55078125 26.515625 C62.70902344 27.33546875 61.86726562 28.1553125 61 29 C59.56018712 30.70994171 58.14359652 32.43968692 56.75 34.1875 C55.64785156 35.53521484 55.64785156 35.53521484 54.5234375 36.91015625 C51.47183533 40.64671556 48.42140732 44.38420385 45.375 48.125 C44.84874023 48.76977295 44.32248047 49.4145459 43.78027344 50.07885742 C39.77710865 54.99936224 35.89703591 59.98952525 32 65 C51.305 65.495 51.305 65.495 71 66 C71 72.6 71 79.2 71 86 C47.57 86 24.14 86 0 86 C0 67.20378315 0 67.20378315 6.44140625 60.53125 C7.28574219 59.6959375 8.13007812 58.860625 9 58 C10.47943696 56.22571934 11.93788859 54.43373335 13.375 52.625 C16.72709408 48.52409608 20.13154882 44.47224664 23.5625 40.4375 C31.66281604 31.01127735 31.66281604 31.01127735 39 21 C39.66 21 40.32 21 41 21 C41 20.34 41 19.68 41 19 C27.47 19 13.94 19 0 19 C0 12.73 0 6.46 0 0 Z " fill="#020202" transform="translate(688,399)"/>
<path d="M0 0 C0 7.26 0 14.52 0 22 C-2.18625 22.103125 -4.3725 22.20625 -6.625 22.3125 C-13.01822087 22.61406702 -17.68437197 23.62004897 -22.25 28.3125 C-26.44009036 34.74728162 -26.3332018 41.08418235 -26.4140625 48.5234375 C-26.43342865 49.62475006 -26.4527948 50.72606262 -26.4727478 51.86074829 C-26.53234928 55.36542099 -26.57885162 58.87012688 -26.625 62.375 C-26.66319762 64.75652445 -26.70225039 67.13803534 -26.7421875 69.51953125 C-26.83963839 75.34628217 -26.91936272 81.17289521 -27 87 C-34.92 87 -42.84 87 -51 87 C-51 58.62 -51 30.24 -51 1 C-43.08 1 -35.16 1 -27 1 C-26.67 4.3 -26.34 7.6 -26 11 C-25.175 9.9275 -24.35 8.855 -23.5 7.75 C-16.63505825 -0.12073554 -10.14219504 -0.46100887 0 0 Z " fill="#050505" transform="translate(633,398)"/>
<path d="M0 0 C7.59 0 15.18 0 23 0 C23 28.38 23 56.76 23 86 C15.41 86 7.82 86 0 86 C0 57.62 0 29.24 0 0 Z " fill="#000000" transform="translate(647,399)"/>
<path d="M0 0 C5.02978142 3.73849178 9.01694466 8.37849609 10.88671875 14.40234375 C11.73393776 22.55928953 11.76208264 30.51947709 6.88671875 37.40234375 C1.52996544 43.44466852 -3.43710391 45.88276849 -11.48828125 46.77734375 C-17.4528764 46.16031667 -22.138581 43.92824849 -26.86328125 40.27734375 C-31.99121017 33.72499013 -34.98890398 27.58672566 -34.5234375 19.13671875 C-33.33219051 11.19507213 -30.47213127 5.71003908 -24.11328125 0.7421875 C-16.93357131 -4.06765724 -7.49329343 -4.27102526 0 0 Z " fill="#FCFCFC" transform="translate(534.11328125,420.59765625)"/>
<path d="M0 0 C4.74038112 4.84811705 7.85238247 11.07328475 8 17.9375 C7.90310397 25.38638243 5.46236599 32.02302178 0.75 37.8125 C-4.64740083 42.03655282 -10.07833251 44.39169868 -17.03515625 44.19140625 C-22.75445383 43.21297263 -28.31480977 40.27677941 -32.1875 35.9375 C-37.47359406 27.92826658 -38.24876198 21.42280971 -37.25 11.8125 C-35.36747573 5.31475492 -31.22968108 0.84740416 -25.6875 -2.9375 C-16.79904996 -7.49567951 -7.91897287 -5.33007789 0 0 Z " fill="#FCFCFC" transform="translate(829.25,423.1875)"/>
<path d="M0 0 C4.975094 4.975094 7.90910894 11.29604572 8.125 18.375 C8.01794604 25.05127449 6.41218762 30.82009361 1.9765625 35.92578125 C-3.74061116 41.21580975 -9.09562644 43.35260692 -16.890625 43.1171875 C-23.94264709 42.18171518 -28.26060539 38.15256509 -32.7421875 32.91015625 C-37.21190337 26.42302808 -36.97629786 19.4264751 -36.1875 11.8125 C-34.2593922 5.0955105 -30.82862677 0.83887178 -25.15234375 -3.12890625 C-16.61783977 -7.72701873 -7.56247837 -5.18993614 0 0 Z " fill="#FCFCFC" transform="translate(640.1875,577.1875)"/>
<path d="M0 0 C3.62011046 2.33296007 5.89022378 4.96794755 7.8125 8.8125 C8.19941286 13.45545428 8.28440735 15.8686853 6.1875 20.0625 C3.1934015 23.5293509 0.50442851 26.28488201 -4.140625 27.1953125 C-9.24838571 27.48774155 -12.21516294 26.15287435 -16.1875 22.8125 C-18.76399145 20.50721818 -20.00612995 18.91737675 -20.5703125 15.48046875 C-20.76513397 11.14893804 -20.43408421 8.33412045 -18.5625 4.375 C-13.23470859 -1.37340652 -7.36884412 -2.74525565 0 0 Z " fill="#040404" transform="translate(664.1875,362.1875)"/>
<path d="M0 0 C4.46074998 0.01705172 8.92096151 0.00695806 13.38169289 -0.0103159 C62.53862789 -0.17212394 62.53862789 -0.17212394 85.55444336 8.39111328 C81.79763847 9.77042329 79.20753422 8.96791559 75.42944336 7.89111328 C71.40453884 6.46036704 71.40453884 6.46036704 67.55444336 7.39111328 C65.50383303 7.14401758 63.46191665 6.82118824 61.42944336 6.45361328 C60.33374023 6.25896484 59.23803711 6.06431641 58.10913086 5.86376953 C57.26608398 5.70779297 56.42303711 5.55181641 55.55444336 5.39111328 C55.22444336 4.40111328 54.89444336 3.41111328 54.55444336 2.39111328 C42.00120742 2.45253736 29.44817573 2.52979576 16.89516163 2.62682819 C11.06521318 2.67140449 5.23533256 2.71068834 -0.59472656 2.73754883 C-6.22939853 2.76370932 -11.86380765 2.80420075 -17.49831581 2.85429955 C-19.63946557 2.87088246 -21.78066069 2.88244978 -23.92186546 2.88872719 C-42.44207387 2.3119569 -42.44207387 2.3119569 -59.44555664 8.39111328 C-61.71508789 8.98876953 -61.71508789 8.98876953 -64.25805664 9.45361328 C-65.57870117 9.69917969 -65.57870117 9.69917969 -66.92602539 9.94970703 C-69.76343196 10.44680307 -72.60013486 10.94183616 -75.44555664 11.39111328 C-72.63887268 8.58442932 -69.31180093 7.7137181 -65.63305664 6.45361328 C-64.95952148 6.20160156 -64.28598633 5.94958984 -63.59204102 5.68994141 C-43.30387181 -1.26244611 -21.13136631 -0.08146772 0 0 Z " fill="#EDCA31" transform="translate(178.445556640625,334.60888671875)"/>
<path d="M0 0 C0.33 0 0.66 0 1 0 C1.13718356 29.0174889 0.81953568 57.99366801 0 87 C-0.33 87 -0.66 87 -1 87 C-1.96365325 78.43793152 -2.1606287 69.95859736 -2.16796875 61.34765625 C-2.17119304 59.95722929 -2.17455793 58.56680265 -2.17805481 57.17637634 C-2.18399887 54.27944147 -2.1858995 51.38253623 -2.18530273 48.4855957 C-2.18520111 44.80676232 -2.19887542 41.12812187 -2.21607494 37.44933414 C-2.22728792 34.58283139 -2.22921915 31.71637403 -2.22869301 28.84985161 C-2.23041732 26.84495989 -2.2411911 24.84008233 -2.25224304 22.83522034 C-2.23294155 15.02513102 -1.56148947 7.65552105 0 0 Z " fill="#F5D13C" transform="translate(68,388)"/>
<path d="M0 0 C1.32 0.33 2.64 0.66 4 1 C4.0246985 4.95099928 4.04285923 8.90196874 4.05493164 12.85302734 C4.06244036 14.85906551 4.0751447 16.86508202 4.08789062 18.87109375 C4.09111328 20.12792969 4.09433594 21.38476562 4.09765625 22.6796875 C4.10289307 23.84226074 4.10812988 25.00483398 4.11352539 26.20263672 C4 29 4 29 3 31 C2.34 31 1.68 31 1 31 C1.14154136 33.56280208 1.28808562 36.12515485 1.4375 38.6875 C1.47681641 39.40873047 1.51613281 40.12996094 1.55664062 40.87304688 C1.78185678 44.66707282 2.12839305 48.28651492 3 52 C3.33 52 3.66 52 4 52 C4.33 55.63 4.66 59.26 5 63 C-0.6362726 55.48496987 -0.28519801 47.30258831 -0.1953125 38.18359375 C-0.1924826 37.08652603 -0.18965271 35.98945831 -0.18673706 34.85914612 C-0.17561997 31.38514902 -0.15053112 27.91141803 -0.125 24.4375 C-0.11495925 22.0696652 -0.10583532 19.70182633 -0.09765625 17.33398438 C-0.07570844 11.55590012 -0.04231609 5.77796908 0 0 Z " fill="#F9D30B" transform="translate(68,433)"/>
<path d="M0 0 C0.66 0 1.32 0 2 0 C1.87882812 0.58265625 1.75765625 1.1653125 1.6328125 1.765625 C1.07238525 4.50740756 0.53564233 7.25326655 0 10 C-0.17795609 10.88206116 -0.35591217 11.76412231 -0.53926086 12.6729126 C-2.03373158 20.69527059 -2.2759199 28.46358654 -2.23046875 36.609375 C-2.22927142 37.98878943 -2.22882495 39.3682047 -2.2290802 40.74761963 C-2.22752835 43.62183839 -2.21934445 46.49593034 -2.20581055 49.37011719 C-2.18888777 53.00476379 -2.18499542 56.63927108 -2.18575573 60.27395248 C-2.18548008 63.11917383 -2.17993562 65.96436635 -2.17275429 68.80957794 C-2.16814131 70.785463 -2.16631479 72.76135396 -2.16459656 74.73724365 C-2.117723 83.85786841 -1.65216777 92.90677364 -1 102 C-1.66 102 -2.32 102 -3 102 C-4.14036717 97.90553672 -4.13297818 93.96580914 -4.11352539 89.74316406 C-4.11367142 88.91352646 -4.11381744 88.08388885 -4.1139679 87.22911072 C-4.11327212 84.4912554 -4.10549539 81.75346841 -4.09765625 79.015625 C-4.09579088 77.11562131 -4.09436754 75.21561714 -4.09336853 73.31561279 C-4.08955273 68.31791859 -4.07973041 63.32025351 -4.06866455 58.3225708 C-4.05843031 53.22156162 -4.05386659 48.12054774 -4.04882812 43.01953125 C-4.03810732 33.01300805 -4.02104212 23.00650645 -4 13 C-3.34 13 -2.68 13 -2 13 C-2.04125 11.783125 -2.0825 10.56625 -2.125 9.3125 C-2.13754508 5.78105873 -1.59998217 3.19996434 0 0 Z " fill="#FEFDD0" transform="translate(69,378)"/>
<path d="M0 0 C10.49370759 -0.0233576 20.98740881 -0.04103277 31.48113728 -0.05181217 C36.35584252 -0.05699046 41.23052974 -0.06399409 46.10522461 -0.07543945 C50.8255601 -0.08645073 55.54587846 -0.09231469 60.26622581 -0.09487724 C62.05077572 -0.09669913 63.83532489 -0.10025501 65.61986732 -0.10573006 C74.87653824 -0.132953 84.12555212 -0.05083845 93.37573242 0.31860352 C94.54399929 0.35174983 94.54399929 0.35174983 95.7358675 0.38556576 C100.50071943 0.6128347 103.80580947 1.51616897 108 4 C105.00776731 4.91799023 102.89026296 5.00519487 99.81835938 4.46557617 C80.34769772 1.3848319 60.93165658 1.44509888 41.26708984 1.33044434 C36.59984141 1.30017764 31.93275226 1.25381188 27.265625 1.20898438 C18.17716823 1.12397088 9.08867767 1.05618452 0 1 C0 0.67 0 0.34 0 0 Z " fill="#FEFDBC" transform="translate(144,334)"/>
<path d="M0 0 C6.00477649 5.50437845 9.06744247 11.10872341 11 19 C10.34 19 9.68 19 9 19 C8.01 17.02 7.02 15.04 6 13 C4.68 14.32 3.36 15.64 2 17 C0.68 15.68 -0.64 14.36 -2 13 C-2.33 14.32 -2.66 15.64 -3 17 C-4.38228901 13.85843408 -3.91178547 12.76056055 -2.6875 9.4375 C-1 6 -1 6 1 3 C0.67 2.01 0.34 1.02 0 0 Z " fill="#FBD20D" transform="translate(292,365)"/>
<path d="M0 0 C2.125 0.375 2.125 0.375 4 1 C-3.45686557 5.92852208 -10.98956933 10.68629564 -18.75 15.125 C-19.78640625 15.7281604 -19.78640625 15.7281604 -20.84375 16.34350586 C-22.52772252 17.29347686 -24.26061262 18.15576076 -26 19 C-26.66 18.67 -27.32 18.34 -28 18 C-27.195625 17.54625 -26.39125 17.0925 -25.5625 16.625 C-22.91143428 15.25274335 -22.91143428 15.25274335 -22 13 C-21.01 13 -20.02 13 -19 13 C-19.061875 12.21625 -19.12375 11.4325 -19.1875 10.625 C-19.125625 9.75875 -19.06375 8.8925 -19 8 C-14.8204355 5.21362367 -12.85331323 6.20437488 -8 7 C-8 6.01 -8 5.02 -8 4 C-7.05125 3.71125 -6.1025 3.4225 -5.125 3.125 C-1.94788422 2.23174891 -1.94788422 2.23174891 0 0 Z " fill="#F5CC24" transform="translate(189,480)"/>
<path d="M0 0 C0.66 0.33 1.32 0.66 2 1 C1.67 2.65 1.34 4.3 1 6 C-0.32 5.67 -1.64 5.34 -3 5 C-3.99 6.485 -3.99 6.485 -5 8 C-3.68 8 -2.36 8 -1 8 C-1 8.66 -1 9.32 -1 10 C-2.98 10 -4.96 10 -7 10 C-7 10.66 -7 11.32 -7 12 C-7 12.99 -7 13.98 -7 15 C-9.31 14.34 -11.62 13.68 -14 13 C-14.66 14.32 -15.32 15.64 -16 17 C-16.99 17 -17.98 17 -19 17 C-19 17.66 -19 18.32 -19 19 C-20.32 18.67 -21.64 18.34 -23 18 C-15.42482971 11.87830483 -7.73533081 5.91667937 0 0 Z " fill="#FCFDEE" transform="translate(227,454)"/>
<path d="M0 0 C0.33 0 0.66 0 1 0 C1.01030746 0.57771652 1.02061493 1.15543304 1.03123474 1.75065613 C1.13950252 7.7691839 1.25408372 13.78756808 1.37231445 19.8059082 C1.41559833 22.05132032 1.45727801 24.29676396 1.49731445 26.54223633 C1.55517557 29.77174373 1.61882451 33.00109341 1.68359375 36.23046875 C1.70030624 37.23272995 1.71701874 38.23499115 1.73423767 39.2676239 C1.75418289 40.20822159 1.77412811 41.14881927 1.79467773 42.11791992 C1.81022202 42.94176682 1.8257663 43.76561371 1.84178162 44.61442566 C2.00968641 47.14604911 2.45074348 49.52539526 3 52 C3.33 52 3.66 52 4 52 C4.33 55.63 4.66 59.26 5 63 C-0.6362726 55.48496987 -0.28519801 47.30258831 -0.1953125 38.18359375 C-0.1924826 37.08652603 -0.18965271 35.98945831 -0.18673706 34.85914612 C-0.17561997 31.38514902 -0.15053112 27.91141803 -0.125 24.4375 C-0.11495925 22.0696652 -0.10583532 19.70182633 -0.09765625 17.33398438 C-0.07570844 11.55590012 -0.04231609 5.77796908 0 0 Z " fill="#F9CF15" transform="translate(68,433)"/>
<path d="M0 0 C0.66 0 1.32 0 2 0 C1.67 1.65 1.34 3.3 1 5 C1.66386719 4.79503906 2.32773438 4.59007812 3.01171875 4.37890625 C4.33623047 3.97478516 4.33623047 3.97478516 5.6875 3.5625 C6.99267578 3.16224609 6.99267578 3.16224609 8.32421875 2.75390625 C10.87025921 2.03655471 13.4003423 1.482459 16 1 C11.69725694 4.48449031 7.117765 5.96065473 1.9375 7.75 C1.02677734 8.07871094 0.11605469 8.40742188 -0.82226562 8.74609375 C-2.13420898 9.20435547 -2.13420898 9.20435547 -3.47265625 9.671875 C-4.26937744 9.9512793 -5.06609863 10.23068359 -5.88696289 10.51855469 C-8 11 -8 11 -11 10 C-9.5459375 9.319375 -9.5459375 9.319375 -8.0625 8.625 C-4.92920418 7.34213779 -4.92920418 7.34213779 -4 5 C-3.01 5 -2.02 5 -1 5 C-0.67 3.35 -0.34 1.7 0 0 Z " fill="#F4CE21" transform="translate(145,498)"/>
<path d="M0 0 C0 0.66 0 1.32 0 2 C-0.66 2 -1.32 2 -2 2 C-2.2475 2.61875 -2.495 3.2375 -2.75 3.875 C-4.22246063 6.37818306 -5.41028837 6.83045281 -8 8 C-8.33 8.66 -8.66 9.32 -9 10 C-8.34 10 -7.68 10 -7 10 C-7 10.99 -7 11.98 -7 13 C-7.66 13 -8.32 13 -9 13 C-9 12.34 -9 11.68 -9 11 C-11.97 11.66 -14.94 12.32 -18 13 C-6.21875 0 -6.21875 0 0 0 Z " fill="#FEF9D9" transform="translate(247,441)"/>
<path d="M0 0 C-3.79072722 2.11084579 -7.42167562 2.72365063 -11.66015625 3.4375 C-14.25055643 3.9179794 -14.25055643 3.9179794 -17 6 C-19.26953125 6.59765625 -19.26953125 6.59765625 -21.8125 7.0625 C-23.13314453 7.30806641 -23.13314453 7.30806641 -24.48046875 7.55859375 C-27.31787532 8.05568978 -30.15457821 8.55072288 -33 9 C-30.94630675 6.94630675 -29.93049018 6.46910037 -27.25390625 5.5625 C-26.50367187 5.30799072 -25.7534375 5.05348145 -24.98046875 4.79125977 C-24.18253906 4.53014404 -23.38460937 4.26902832 -22.5625 4 C-21.75296875 3.7330835 -20.9434375 3.46616699 -20.109375 3.19116211 C-3.99656267 -1.99828134 -3.99656267 -1.99828134 0 0 Z " fill="#EECD38" transform="translate(136,337)"/>
<path d="M0 0 C4.455 0.99 4.455 0.99 9 2 C9 2.66 9 3.32 9 4 C14.94 4.33 20.88 4.66 27 5 C27 5.33 27 5.66 27 6 C16.15018837 6.32878217 6.49012402 6.11367639 -4 3 C-2.68 2.67 -1.36 2.34 0 2 C0 1.34 0 0.68 0 0 Z " fill="#F0CC2C" transform="translate(93,506)"/>
<path d="M0 0 C0 0.99 0 1.98 0 3 C-0.99 3.495 -0.99 3.495 -2 4 C-2 4.99 -2 5.98 -2 7 C-3.65 7 -5.3 7 -7 7 C-7 6.34 -7 5.68 -7 5 C-7.99 5.495 -7.99 5.495 -9 6 C-10.54023996 6.06950541 -12.08334988 6.08452357 -13.625 6.0625 C-14.85089844 6.04896484 -14.85089844 6.04896484 -16.1015625 6.03515625 C-17.04128906 6.01775391 -17.04128906 6.01775391 -18 6 C-14.72828292 4.24560099 -11.39577958 3.04282615 -7.875 1.875 C-6.82054687 1.52179688 -5.76609375 1.16859375 -4.6796875 0.8046875 C-2 0 -2 0 0 0 Z " fill="#FDF9E0" transform="translate(151,504)"/>
<path d="M0 0 C0.33 0 0.66 0 1 0 C1 1.65 1 3.3 1 5 C0.34 5 -0.32 5 -1 5 C-1 6.65 -1 8.3 -1 10 C-1.66 10 -2.32 10 -3 10 C-4.98 14.62 -6.96 19.24 -9 24 C-10.8900484 16.43980638 -5.8202801 9.39234987 -2 3 C-1.34 2.01 -0.68 1.02 0 0 Z " fill="#F2CB29" transform="translate(79,364)"/>
<path d="M0 0 C0.33 0 0.66 0 1 0 C1 6.93 1 13.86 1 21 C-7.58 21 -16.16 21 -25 21 C-21.81579155 18.87719437 -20.79462745 18.71980463 -17.11328125 18.5859375 C-16.17548828 18.54726563 -15.23769531 18.50859375 -14.27148438 18.46875 C-13.29501953 18.4378125 -12.31855469 18.406875 -11.3125 18.375 C-10.32443359 18.33632813 -9.33636719 18.29765625 -8.31835938 18.2578125 C-5.8792139 18.16354601 -3.43963253 18.0806841 -1 18 C-0.67 12.06 -0.34 6.12 0 0 Z " fill="#ECC73A" transform="translate(306,404)"/>
<path d="M0 0 C0.66 0.33 1.32 0.66 2 1 C1.236875 1.4125 0.47375 1.825 -0.3125 2.25 C-4.03201546 4.67201007 -5.6039192 6.8117576 -7 11 C-10 11 -13 11 -16 11 C-11.14759716 6.65837641 -5.89445654 2.82000978 0 0 Z " fill="#F0D034" transform="translate(101,346)"/>
<path d="M0 0 C1.98 0.66 3.96 1.32 6 2 C2.32442148 6.00972202 -1.18966896 8.45335415 -6 11 C-6 10.01 -6 9.02 -6 8 C-5.01 7.67 -4.02 7.34 -3 7 C-2.87625 6.21625 -2.7525 5.4325 -2.625 4.625 C-2 2 -2 2 0 0 Z " fill="#F2CE1F" transform="translate(237,440)"/>
<path d="M0 0 C1.9451 2.91765 2.45276317 4.62537285 3 8 C3.33 8 3.66 8 4 8 C4.33 11.63 4.66 15.26 5 19 C0.61982891 13.15977188 -0.37319174 7.27723883 0 0 Z " fill="#EBCF29" transform="translate(68,477)"/>
<path d="M0 0 C0.66 0.33 1.32 0.66 2 1 C1.67 2.65 1.34 4.3 1 6 C0.43796875 5.76410156 -0.1240625 5.52820313 -0.703125 5.28515625 C-3.12695624 4.743 -3.12695624 4.743 -5.359375 6.43359375 C-6.54273438 7.42552734 -6.54273438 7.42552734 -7.75 8.4375 C-8.54921875 9.09621094 -9.3484375 9.75492187 -10.171875 10.43359375 C-11.07679688 11.20896484 -11.07679688 11.20896484 -12 12 C-12.66 11.67 -13.32 11.34 -14 11 C-9.38 7.37 -4.76 3.74 0 0 Z " fill="#FDFAC4" transform="translate(227,454)"/>
<path d="M0 0 C0.9075 0.61875 1.815 1.2375 2.75 1.875 C6.04498848 4.11846968 6.04498848 4.11846968 10 6 C6.7 6.66 3.4 7.32 0 8 C0.66 7.67 1.32 7.34 2 7 C1.2236068 3.9254644 1.2236068 3.9254644 -1 2 C-0.67 1.34 -0.34 0.68 0 0 Z " fill="#F5CF23" transform="translate(270,420)"/>
<path d="M0 0 C1.65 0 3.3 0 5 0 C5.80967438 2.91482778 6.21845993 4.46113217 5.0625 7.3125 C4.5365625 8.1478125 4.5365625 8.1478125 4 9 C0 2.25 0 2.25 0 0 Z " fill="#FCFAE1" transform="translate(296,368)"/>
<path d="M0 0 C-5.94 3.465 -5.94 3.465 -12 7 C-12 4 -12 4 -11 2 C-4.74534161 -1.1863354 -4.74534161 -1.1863354 0 0 Z " fill="#FEF9C4" transform="translate(103,346)"/>
<path d="M0 0 C0.99 0.33 1.98 0.66 3 1 C2.52949219 1.39832031 2.05898438 1.79664063 1.57421875 2.20703125 C0.95160156 2.73683594 0.32898438 3.26664063 -0.3125 3.8125 C-0.92738281 4.33457031 -1.54226563 4.85664062 -2.17578125 5.39453125 C-4.00674771 6.96125029 -4.00674771 6.96125029 -5.59375 8.65625 C-7.30960016 10.29584015 -8.69209212 10.60208485 -11 11 C-7.33333333 7.33333333 -3.66666667 3.66666667 0 0 Z " fill="#EBEBEB" transform="translate(290,625)"/>
<path d="M0 0 C1.65 0 3.3 0 5 0 C5 0.99 5 1.98 5 3 C5.78375 3.268125 6.5675 3.53625 7.375 3.8125 C10 5 10 5 12 8 C6.80421104 6.63919813 3.86388964 4.58789752 0 1 C0 0.67 0 0.34 0 0 Z " fill="#EBCF28" transform="translate(76,500)"/>
<path d="M0 0 C-4.625 4.875 -4.625 4.875 -8 6 C-8.33 4.68 -8.66 3.36 -9 2 C-5.86501708 0.14223235 -3.62528568 -0.20140476 0 0 Z " fill="#F5CE26" transform="translate(201,474)"/>
<path d="M0 0 C1.65 0.33 3.3 0.66 5 1 C3.75453595 4.73639216 2.36595047 5.18756513 -1 7 C-1.33 5.68 -1.66 4.36 -2 3 C-1.34 3 -0.68 3 0 3 C0 2.01 0 1.02 0 0 Z " fill="#F5F5F4" transform="translate(240,461)"/>
<path d="M0 0 C0.33 0 0.66 0 1 0 C1 6.93 1 13.86 1 21 C0.01 20.67 -0.98 20.34 -2 20 C-1.67 19.34 -1.34 18.68 -1 18 C-0.84995027 16.6265365 -0.75161994 15.2471474 -0.68359375 13.8671875 C-0.64169922 13.06152344 -0.59980469 12.25585938 -0.55664062 11.42578125 C-0.51732422 10.58402344 -0.47800781 9.74226563 -0.4375 8.875 C-0.39431641 8.02550781 -0.35113281 7.17601562 -0.30664062 6.30078125 C-0.20045764 4.20071777 -0.09971503 2.10038052 0 0 Z " fill="#E3C757" transform="translate(306,404)"/>
<path d="M0 0 C0.99 0.33 1.98 0.66 3 1 C2.02526874 2.66926454 1.04510211 4.33535642 0.0625 6 C-0.75541016 7.3921875 -0.75541016 7.3921875 -1.58984375 8.8125 C-2.05519531 9.534375 -2.52054687 10.25625 -3 11 C-3.33 11 -3.66 11 -4 11 C-4 9.35 -4 7.7 -4 6 C-3.34 6 -2.68 6 -2 6 C-1.855625 5.195625 -1.71125 4.39125 -1.5625 3.5625 C-1 1 -1 1 0 0 Z " fill="#FEF5BD" transform="translate(77,363)"/>
<path d="M0 0 C-0.33 1.32 -0.66 2.64 -1 4 C-2.32 4.33 -3.64 4.66 -5 5 C-5 5.66 -5 6.32 -5 7 C-6.32 6.67 -7.64 6.34 -9 6 C-7.8803014 4.99406757 -6.7540588 3.9954151 -5.625 3 C-4.68527344 2.1646875 -4.68527344 2.1646875 -3.7265625 1.3125 C-2 0 -2 0 0 0 Z " fill="#FEF7C5" transform="translate(213,466)"/>
<path d="M0 0 C0.66 0 1.32 0 2 0 C1.71572583 1.58467728 1.42225182 3.1677057 1.125 4.75 C0.88136719 6.07257813 0.88136719 6.07257813 0.6328125 7.421875 C0.03203736 9.86947744 -0.77997117 11.80599857 -2 14 C-2.3690205 4.58997722 -2.3690205 4.58997722 0 0 Z " fill="#FFF8C4" transform="translate(69,378)"/>
<path d="M0 0 C3.49928164 2.33285443 3.6329098 3.20795069 4.6875 7.125 C4.93886719 8.03507812 5.19023437 8.94515625 5.44921875 9.8828125 C5.72185547 10.93082031 5.72185547 10.93082031 6 12 C5.34 12 4.68 12 4 12 C3.32332002 10.75539217 2.65905281 9.50403104 2 8.25 C1.62875 7.55390625 1.2575 6.8578125 0.875 6.140625 C0 4 0 4 0 0 Z " fill="#EFD13F" transform="translate(297,372)"/>
<path d="M0 0 C0 0.66 0 1.32 0 2 C-0.66 2 -1.32 2 -2 2 C-2.66 3.32 -3.32 4.64 -4 6 C-5.65 6 -7.3 6 -9 6 C-3.15384615 0 -3.15384615 0 0 0 Z " fill="#FEF6CA" transform="translate(247,441)"/>
<path d="M0 0 C0.66 0.33 1.32 0.66 2 1 C0 4 0 4 -3 5 C-3.99 6.485 -3.99 6.485 -5 8 C-6.32 7.67 -7.64 7.34 -9 7 C-6.03 4.69 -3.06 2.38 0 0 Z " fill="#FEF7BE" transform="translate(202,473)"/>
<path d="M0 0 C0.33 0.66 0.66 1.32 1 2 C0.34 1.67 -0.32 1.34 -1 1 C-0.67 0.67 -0.34 0.34 0 0 Z M-4 3 C-3.01 3.495 -3.01 3.495 -2 4 C-2.99 4.495 -2.99 4.495 -4 5 C-4 4.34 -4 3.68 -4 3 Z M-5 5 C-4.3125 6.8125 -4.3125 6.8125 -4 9 C-5.4375 10.75 -5.4375 10.75 -7 12 C-7.66 11.67 -8.32 11.34 -9 11 C-7.68 9.02 -6.36 7.04 -5 5 Z " fill="#EAEAEA" transform="translate(802,421)"/>
<path d="M0 0 C0 0.66 0 1.32 0 2 C-2.40545638 3.20272819 -3.94996953 3.10071472 -6.625 3.0625 C-7.85089844 3.04896484 -7.85089844 3.04896484 -9.1015625 3.03515625 C-10.04128906 3.01775391 -10.04128906 3.01775391 -11 3 C-7.20844146 1.05276952 -4.29965574 0 0 0 Z " fill="#FDF9C0" transform="translate(144,507)"/>
<path d="M0 0 C-2.42130331 2.42130331 -3.80111377 2.52840504 -7.125 3.125 C-8.49011719 3.37636719 -8.49011719 3.37636719 -9.8828125 3.6328125 C-10.58148438 3.75398438 -11.28015625 3.87515625 -12 4 C-8.21692645 0.21692645 -5.303392 -0.24106327 0 0 Z " fill="#EDC732" transform="translate(146,505)"/>
<path d="M0 0 C2.5625 2.25 2.5625 2.25 5 5 C4.8125 7.3125 4.8125 7.3125 4 9 C3.34 9 2.68 9 2 9 C1.34 6.03 0.68 3.06 0 0 Z " fill="#F2CD2A" transform="translate(292,365)"/>
<path d="M0 0 C0.99 0 1.98 0 3 0 C4.38671875 1.53125 4.38671875 1.53125 5.6875 3.5 C6.12449219 4.1496875 6.56148438 4.799375 7.01171875 5.46875 C7.33785156 5.9740625 7.66398437 6.479375 8 7 C7.67 7.66 7.34 8.32 7 9 C5.83037314 7.69013727 4.66437056 6.3770374 3.5 5.0625 C2.8503125 4.33160156 2.200625 3.60070312 1.53125 2.84765625 C0 1 0 1 0 0 Z " fill="#FEF8BC" transform="translate(288,359)"/>
<path d="M0 0 C1.65 1.32 3.3 2.64 5 4 C4.67 4.66 4.34 5.32 4 6 C2.35 5.67 0.7 5.34 -1 5 C-0.67 3.35 -0.34 1.7 0 0 Z " fill="#ECCD22" transform="translate(287,359)"/>
<path d="M0 0 C3.37462715 0.54723683 5.08235 1.0549 8 3 C8 3.66 8 4.32 8 5 C4.62496331 3.8141763 2.35277269 2.72426311 0 0 Z " fill="#FDF4B1" transform="translate(272,347)"/>
<path d="M0 0 C1.73662334 3.22515763 2.8905928 6.51329166 4 10 C3.34 10 2.68 10 2 10 C-0.4294516 6.3558226 -0.16179575 4.28758728 0 0 Z " fill="#FEF7C5" transform="translate(69,488)"/>
<path d="M0 0 C1.67542976 0.28604898 3.34385343 0.61781233 5 1 C3.625 3 3.625 3 2 5 C1.34 5 0.68 5 0 5 C-0.5625 3.0625 -0.5625 3.0625 -1 1 C-0.67 0.67 -0.34 0.34 0 0 Z " fill="#F1CD25" transform="translate(214,459)"/>
<path d="M0 0 C0.33 0.66 0.66 1.32 1 2 C2.32 2.33 3.64 2.66 5 3 C0.545 4.485 0.545 4.485 -4 6 C-3.67 5.34 -3.34 4.68 -3 4 C-2.34 4 -1.68 4 -1 4 C-0.67 2.68 -0.34 1.36 0 0 Z " fill="#F2CD29" transform="translate(260,428)"/>
</svg>
